<svg width="406" height="394" viewBox="0 0 406 394" fill="none" xmlns="http://www.w3.org/2000/svg">
<g clip-path="url(#clip0)">
<path d="M364.36 59.22C339.48 2.48999 279.76 -18.87 232.64 19.22C214.24 34.08 202.76 57.73 180.23 67.22C159.09 76.12 132.31 73.5 109.45 78.32C60.77 88.52 -4.77002 127.22 0.229975 186.84C2.41998 212.97 32.79 236.99 41.5 261.43C51.5 289.55 44.75 329.72 71.22 346.53C116.6 375.39 171.34 351.8 212.22 328.53C234.22 316.02 246.33 308.33 270.02 312.62C291.95 316.62 311.7 330.62 333.13 314.01C349.22 301.54 350.55 276.27 364.06 261.43C379.28 244.71 394.71 243.5 402.62 218.37C412.21 187.88 398.08 168.83 388.53 141.59C378.98 114.35 376.08 85.91 364.36 59.22Z" fill="#004643"/>
<g opacity="0.7">
<path opacity="0.7" d="M364.36 59.22C339.48 2.48999 279.76 -18.87 232.64 19.22C214.24 34.08 202.76 57.73 180.23 67.22C159.09 76.12 132.31 73.5 109.45 78.32C60.77 88.52 -4.77002 127.22 0.229975 186.84C2.41998 212.97 31.29 236.99 40 261.43C50 289.55 44.75 329.72 71.22 346.53C116.6 375.39 171.34 351.8 212.22 328.53C234.22 316.02 246.33 308.33 270.02 312.62C291.95 316.62 311.7 330.62 333.13 314.01C349.22 301.54 350.55 276.27 364.06 261.43C379.28 244.71 394.71 243.5 402.62 218.37C412.21 187.88 398.08 168.83 388.53 141.59C378.98 114.35 376.08 85.91 364.36 59.22Z" fill="white"/>
</g>
<path d="M175.04 393.91C260.412 393.91 329.62 389.599 329.62 384.28C329.62 378.962 260.412 374.65 175.04 374.65C89.6678 374.65 20.46 378.962 20.46 384.28C20.46 389.599 89.6678 393.91 175.04 393.91Z" fill="#004643"/>
<path opacity="0.8" d="M175.04 393.91C260.412 393.91 329.62 389.599 329.62 384.28C329.62 378.962 260.412 374.65 175.04 374.65C89.6678 374.65 20.46 378.962 20.46 384.28C20.46 389.599 89.6678 393.91 175.04 393.91Z" fill="white"/>
<path d="M291.2 18.09H135.77C125.039 18.09 116.34 26.7891 116.34 37.52V365.66C116.34 376.391 125.039 385.09 135.77 385.09H291.2C301.931 385.09 310.63 376.391 310.63 365.66V37.52C310.63 26.7891 301.931 18.09 291.2 18.09Z" fill="#263238"/>
<path d="M302 58.38H124.98V344.78H302V58.38Z" fill="white" stroke="#263238" stroke-width="1.34" stroke-miterlimit="10"/>
<path d="M240.627 174.352C255.611 159.367 255.611 135.073 240.627 120.088C225.642 105.104 201.348 105.104 186.363 120.088C171.379 135.073 171.379 159.367 186.363 174.352C201.348 189.336 225.642 189.336 240.627 174.352Z" fill="#004643"/>
<path d="M263.86 326.77H163.12C162.893 326.771 162.668 326.728 162.459 326.642C162.249 326.556 162.058 326.43 161.897 326.27C161.736 326.11 161.609 325.92 161.522 325.711C161.435 325.501 161.39 325.277 161.39 325.05C161.389 324.822 161.432 324.597 161.519 324.386C161.605 324.176 161.733 323.985 161.894 323.824C162.055 323.663 162.246 323.535 162.456 323.449C162.667 323.362 162.892 323.319 163.12 323.32H263.86C264.087 323.32 264.311 323.365 264.52 323.452C264.73 323.539 264.92 323.666 265.08 323.827C265.24 323.988 265.366 324.179 265.452 324.389C265.538 324.599 265.581 324.823 265.58 325.05C265.58 325.506 265.399 325.944 265.076 326.266C264.754 326.589 264.316 326.77 263.86 326.77Z" fill="#004643"/>
<path d="M267.14 207.16H159.83C157.615 207.16 155.82 208.955 155.82 211.17V223.82C155.82 226.035 157.615 227.83 159.83 227.83H267.14C269.355 227.83 271.15 226.035 271.15 223.82V211.17C271.15 208.955 269.355 207.16 267.14 207.16Z" fill="#004643"/>
<path d="M267.14 245.83H159.83C157.615 245.83 155.82 247.625 155.82 249.84V262.49C155.82 264.705 157.615 266.5 159.83 266.5H267.14C269.355 266.5 271.15 264.705 271.15 262.49V249.84C271.15 247.625 269.355 245.83 267.14 245.83Z" fill="#004643"/>
<path d="M232.59 166.36L221.3 159.86V154.49C222.935 152.512 224.119 150.202 224.77 147.72C225.158 147.858 225.568 147.929 225.98 147.93C227.38 147.93 228.27 143.59 228.42 140.49C230.05 137.04 227.83 135.02 227.83 135.02C227.83 135.02 228.75 134.1 229.36 130.41C229.97 126.72 227.21 128.26 225.06 124.88C222.91 121.5 221.37 117.82 214.31 117.82C212.365 117.756 210.445 118.279 208.801 119.32C207.156 120.362 205.863 121.874 205.09 123.66C203.333 123.666 201.581 123.871 199.87 124.27C197.71 124.88 197.1 131.95 198.94 134.72C199.764 136.234 200.203 137.927 200.22 139.65C199.73 139.05 199.22 138.89 198.94 140.25C198.33 143.32 200.79 147.62 200.79 147.62L202.06 147.26C202.7 149.912 203.934 152.385 205.67 154.49V159.86L194.38 166.36C193.061 167.121 191.966 168.216 191.205 169.534C190.443 170.852 190.041 172.347 190.04 173.87V177.59C196.755 182.777 205 185.591 213.485 185.591C221.97 185.591 230.215 182.777 236.93 177.59V173.87C236.931 172.347 236.53 170.851 235.768 169.532C235.006 168.214 233.91 167.12 232.59 166.36V166.36Z" fill="white"/>
<path d="M170.43 261.35C170.171 261.346 169.924 261.242 169.74 261.06C169.642 260.972 169.563 260.864 169.51 260.743C169.456 260.623 169.429 260.492 169.43 260.36C169.433 260.18 169.485 260.003 169.58 259.85L171.38 256.97L167.87 257.08C167.738 257.088 167.605 257.068 167.481 257.022C167.357 256.975 167.244 256.903 167.15 256.81C166.987 256.627 166.897 256.39 166.897 256.145C166.897 255.9 166.987 255.663 167.15 255.48C167.242 255.383 167.354 255.308 167.479 255.26C167.603 255.211 167.737 255.191 167.87 255.2L171.33 255.33L169.55 252.46C169.453 252.304 169.401 252.124 169.4 251.94C169.399 251.808 169.426 251.677 169.48 251.557C169.533 251.436 169.612 251.328 169.71 251.24C169.894 251.058 170.141 250.954 170.4 250.95C170.57 250.951 170.737 251.001 170.88 251.093C171.024 251.185 171.138 251.315 171.21 251.47L172.92 254.56L174.61 251.49C174.69 251.326 174.814 251.187 174.967 251.089C175.12 250.99 175.298 250.935 175.48 250.93C175.606 250.931 175.731 250.958 175.847 251.009C175.962 251.061 176.065 251.136 176.15 251.23C176.334 251.42 176.434 251.676 176.43 251.94C176.429 252.112 176.385 252.28 176.3 252.43L174.49 255.33L178 255.2C178.133 255.191 178.267 255.211 178.391 255.26C178.516 255.308 178.628 255.383 178.72 255.48C178.89 255.657 178.984 255.894 178.98 256.14C178.979 256.388 178.887 256.627 178.72 256.81C178.626 256.903 178.513 256.975 178.389 257.022C178.265 257.068 178.132 257.088 178 257.08L174.47 256.97L176.23 259.82C176.329 259.979 176.381 260.163 176.38 260.35C176.38 260.615 176.275 260.87 176.087 261.057C175.9 261.245 175.645 261.35 175.38 261.35C175.209 261.348 175.041 261.295 174.899 261.199C174.757 261.103 174.646 260.968 174.58 260.81L172.91 257.81L171.25 260.81C171.176 260.967 171.061 261.1 170.916 261.195C170.771 261.291 170.603 261.344 170.43 261.35V261.35Z" fill="white"/>
<path d="M186.65 261.35C186.391 261.346 186.144 261.242 185.96 261.06C185.862 260.972 185.783 260.864 185.73 260.743C185.676 260.623 185.649 260.492 185.65 260.36C185.653 260.18 185.705 260.003 185.8 259.85L187.6 256.97L184.1 257.08C183.966 257.086 183.833 257.065 183.708 257.019C183.582 256.973 183.467 256.901 183.37 256.81C183.237 256.673 183.149 256.499 183.116 256.311C183.083 256.124 183.108 255.93 183.187 255.756C183.266 255.583 183.395 255.437 183.558 255.338C183.721 255.238 183.909 255.19 184.1 255.2L187.55 255.33L185.77 252.46C185.673 252.304 185.621 252.124 185.62 251.94C185.619 251.808 185.646 251.677 185.7 251.557C185.753 251.436 185.832 251.328 185.93 251.24C186.114 251.058 186.361 250.954 186.62 250.95C186.79 250.951 186.957 251.001 187.1 251.093C187.244 251.185 187.358 251.315 187.43 251.47L189.14 254.56L190.83 251.49C190.91 251.326 191.034 251.187 191.187 251.089C191.34 250.99 191.518 250.935 191.7 250.93C191.827 250.929 191.952 250.956 192.067 251.008C192.183 251.059 192.286 251.135 192.37 251.23C192.463 251.323 192.536 251.434 192.586 251.556C192.635 251.678 192.661 251.808 192.66 251.94C192.656 252.113 192.608 252.281 192.52 252.43L190.71 255.33L194.23 255.22C194.362 255.211 194.494 255.232 194.616 255.28C194.739 255.328 194.85 255.404 194.94 255.5C195.11 255.677 195.204 255.914 195.2 256.16C195.199 256.408 195.107 256.647 194.94 256.83C194.848 256.923 194.737 256.995 194.614 257.042C194.492 257.088 194.361 257.108 194.23 257.1L190.69 256.99L192.45 259.84C192.549 259.999 192.601 260.183 192.6 260.37C192.6 260.635 192.495 260.89 192.307 261.077C192.119 261.265 191.865 261.37 191.6 261.37C191.428 261.368 191.261 261.315 191.119 261.219C190.977 261.123 190.866 260.988 190.8 260.83L189.13 257.83L187.47 260.83C187.394 260.983 187.277 261.112 187.132 261.204C186.988 261.296 186.821 261.346 186.65 261.35V261.35Z" fill="white"/>
<path d="M202.88 261.35C202.618 261.349 202.366 261.245 202.18 261.06C202.082 260.972 202.003 260.864 201.95 260.743C201.896 260.623 201.869 260.492 201.87 260.36C201.873 260.18 201.925 260.003 202.02 259.85L203.82 256.97L200.32 257.08C200.131 257.087 199.945 257.039 199.784 256.94C199.624 256.841 199.496 256.697 199.418 256.525C199.339 256.353 199.314 256.162 199.345 255.976C199.375 255.79 199.461 255.617 199.59 255.48C199.684 255.384 199.798 255.309 199.924 255.26C200.05 255.212 200.185 255.192 200.32 255.2L203.77 255.33L201.99 252.46C201.893 252.304 201.841 252.124 201.84 251.94C201.843 251.809 201.872 251.679 201.925 251.559C201.978 251.439 202.055 251.331 202.15 251.24C202.336 251.055 202.588 250.951 202.85 250.95C203.019 250.953 203.183 251.003 203.324 251.095C203.466 251.187 203.579 251.317 203.65 251.47L205.36 254.56L207.05 251.49C207.13 251.326 207.254 251.187 207.407 251.089C207.56 250.99 207.738 250.935 207.92 250.93C208.047 250.929 208.172 250.956 208.287 251.008C208.403 251.059 208.506 251.135 208.59 251.23C208.683 251.323 208.756 251.434 208.806 251.556C208.855 251.678 208.881 251.808 208.88 251.94C208.876 252.113 208.828 252.281 208.74 252.43L206.93 255.33L210.45 255.2C210.579 255.187 210.71 255.202 210.833 255.244C210.956 255.286 211.069 255.353 211.164 255.442C211.259 255.531 211.333 255.64 211.383 255.76C211.432 255.88 211.455 256.01 211.45 256.14C211.452 256.386 211.363 256.625 211.2 256.81C211.106 256.903 210.993 256.975 210.869 257.022C210.745 257.068 210.612 257.088 210.48 257.08L206.95 256.97L208.7 259.82C208.799 259.979 208.851 260.163 208.85 260.35C208.847 260.481 208.818 260.611 208.765 260.731C208.711 260.851 208.635 260.959 208.54 261.05C208.453 261.144 208.348 261.218 208.231 261.27C208.114 261.322 207.988 261.349 207.86 261.35C207.69 261.347 207.524 261.294 207.384 261.198C207.244 261.102 207.134 260.967 207.07 260.81L205.39 257.81L203.73 260.81C203.655 260.972 203.535 261.109 203.384 261.205C203.234 261.301 203.058 261.351 202.88 261.35V261.35Z" fill="white"/>
<path d="M219.1 261.35C218.838 261.349 218.586 261.245 218.4 261.06C218.212 260.875 218.104 260.624 218.1 260.36C218.097 260.18 218.145 260.003 218.24 259.85L220.04 256.97L216.54 257.08C216.406 257.086 216.273 257.065 216.148 257.019C216.022 256.973 215.907 256.901 215.81 256.81C215.647 256.627 215.557 256.39 215.557 256.145C215.557 255.9 215.647 255.663 215.81 255.48C215.907 255.387 216.021 255.314 216.146 255.266C216.272 255.218 216.406 255.195 216.54 255.2L220 255.33L218.23 252.46C218.133 252.304 218.081 252.124 218.08 251.94C218.083 251.809 218.112 251.679 218.165 251.559C218.218 251.439 218.295 251.331 218.39 251.24C218.576 251.055 218.828 250.951 219.09 250.95C219.26 250.951 219.427 251.001 219.57 251.093C219.714 251.185 219.828 251.315 219.9 251.47L221.6 254.56L223.29 251.49C223.37 251.326 223.494 251.187 223.647 251.089C223.8 250.99 223.978 250.935 224.16 250.93C224.287 250.929 224.412 250.956 224.527 251.008C224.643 251.059 224.746 251.135 224.83 251.23C224.923 251.323 224.996 251.434 225.046 251.556C225.095 251.678 225.121 251.808 225.12 251.94C225.116 252.113 225.068 252.281 224.98 252.43L223.17 255.33L226.69 255.2C226.819 255.187 226.95 255.202 227.073 255.244C227.196 255.286 227.309 255.353 227.404 255.442C227.499 255.531 227.573 255.64 227.623 255.76C227.672 255.88 227.695 256.01 227.69 256.14C227.692 256.386 227.603 256.625 227.44 256.81C227.346 256.903 227.233 256.975 227.109 257.022C226.985 257.068 226.852 257.088 226.72 257.08L223.19 256.97L224.94 259.82C225.039 259.979 225.091 260.163 225.09 260.35C225.091 260.482 225.064 260.613 225.01 260.733C224.957 260.854 224.878 260.962 224.78 261.05C224.693 261.144 224.588 261.218 224.471 261.27C224.354 261.322 224.228 261.349 224.1 261.35C223.93 261.347 223.764 261.294 223.624 261.198C223.484 261.102 223.374 260.967 223.31 260.81L221.63 257.81L219.97 260.81C219.894 260.975 219.771 261.114 219.616 261.21C219.461 261.306 219.282 261.355 219.1 261.35Z" fill="white"/>
<path d="M235.32 261.35C235.058 261.349 234.806 261.245 234.62 261.06C234.465 260.903 234.366 260.699 234.339 260.48C234.312 260.262 234.358 260.04 234.47 259.85L236.26 256.97L232.76 257.08C232.626 257.086 232.493 257.065 232.368 257.019C232.242 256.973 232.127 256.901 232.03 256.81C231.867 256.627 231.777 256.39 231.777 256.145C231.777 255.9 231.867 255.663 232.03 255.48C232.127 255.387 232.241 255.314 232.367 255.266C232.492 255.218 232.626 255.195 232.76 255.2L236.22 255.33L234.44 252.46C234.343 252.304 234.291 252.124 234.29 251.94C234.294 251.676 234.402 251.425 234.59 251.24C234.776 251.055 235.028 250.951 235.29 250.95C235.46 250.951 235.627 251.001 235.77 251.093C235.914 251.185 236.028 251.315 236.1 251.47L237.8 254.56L239.49 251.49C239.57 251.326 239.694 251.187 239.847 251.089C240 250.99 240.178 250.935 240.36 250.93C240.488 250.929 240.615 250.956 240.732 251.007C240.849 251.059 240.954 251.135 241.04 251.23C241.224 251.42 241.324 251.676 241.32 251.94C241.316 252.113 241.268 252.281 241.18 252.43L239.37 255.33L242.89 255.2C243.019 255.187 243.15 255.202 243.273 255.244C243.396 255.286 243.509 255.353 243.604 255.442C243.699 255.531 243.773 255.64 243.823 255.76C243.872 255.88 243.895 256.01 243.89 256.14C243.892 256.386 243.803 256.625 243.64 256.81C243.546 256.903 243.433 256.975 243.309 257.022C243.185 257.068 243.052 257.088 242.92 257.08L239.39 256.97L241.14 259.82C241.239 259.979 241.291 260.163 241.29 260.35C241.291 260.482 241.264 260.613 241.21 260.733C241.157 260.854 241.078 260.962 240.98 261.05C240.893 261.144 240.788 261.218 240.671 261.27C240.554 261.322 240.428 261.349 240.3 261.35C240.13 261.347 239.965 261.294 239.824 261.198C239.684 261.102 239.574 260.967 239.51 260.81L237.83 257.81L236.17 260.81C236.095 260.972 235.975 261.109 235.824 261.205C235.674 261.301 235.499 261.351 235.32 261.35Z" fill="white"/>
<path d="M251.54 261.35C251.281 261.346 251.034 261.242 250.85 261.06C250.752 260.972 250.673 260.864 250.62 260.743C250.566 260.623 250.539 260.492 250.54 260.36C250.543 260.18 250.595 260.003 250.69 259.85L252.48 256.97L248.98 257.08C248.851 257.09 248.722 257.072 248.6 257.029C248.478 256.986 248.367 256.919 248.273 256.83C248.179 256.742 248.104 256.635 248.054 256.516C248.003 256.397 247.978 256.269 247.98 256.14C247.979 256.018 248.003 255.896 248.049 255.783C248.095 255.67 248.164 255.567 248.25 255.48C248.342 255.383 248.454 255.308 248.579 255.26C248.703 255.211 248.837 255.191 248.97 255.2L252.43 255.33L250.65 252.46C250.553 252.304 250.501 252.124 250.5 251.94C250.504 251.676 250.612 251.425 250.8 251.24C250.986 251.055 251.238 250.951 251.5 250.95C251.67 250.951 251.837 251.001 251.98 251.093C252.124 251.185 252.238 251.315 252.31 251.47L254.01 254.56L255.71 251.49C255.789 251.328 255.911 251.19 256.063 251.091C256.214 250.993 256.389 250.937 256.57 250.93C256.698 250.929 256.825 250.956 256.942 251.007C257.059 251.059 257.164 251.135 257.25 251.23C257.433 251.42 257.534 251.676 257.53 251.94C257.529 252.112 257.485 252.28 257.4 252.43L255.59 255.33L259.1 255.2C259.233 255.191 259.367 255.211 259.491 255.26C259.616 255.308 259.728 255.383 259.82 255.48C259.99 255.657 260.084 255.894 260.08 256.14C260.079 256.388 259.987 256.627 259.82 256.81C259.726 256.903 259.613 256.975 259.489 257.022C259.365 257.068 259.232 257.088 259.1 257.08L255.57 256.97L257.32 259.82C257.419 259.979 257.471 260.163 257.47 260.35C257.466 260.614 257.358 260.865 257.17 261.05C256.988 261.236 256.74 261.344 256.48 261.35C256.31 261.347 256.144 261.294 256.004 261.198C255.864 261.102 255.754 260.967 255.69 260.81L254.01 257.81L252.35 260.81C252.278 260.966 252.164 261.099 252.021 261.194C251.878 261.29 251.712 261.344 251.54 261.35Z" fill="white"/>
<g style="mix-blend-mode:multiply">
<path d="M302 58.76H124.98V69.85H302V58.76Z" fill="#004643"/>
</g>
<path d="M232.73 38.33H194.23C193.535 38.33 192.869 38.0539 192.377 37.5626C191.886 37.0712 191.61 36.4048 191.61 35.71V35.71C191.61 35.0151 191.886 34.3487 192.377 33.8573C192.869 33.366 193.535 33.09 194.23 33.09H232.73C233.425 33.09 234.091 33.366 234.583 33.8573C235.074 34.3487 235.35 35.0151 235.35 35.71V35.71C235.35 36.4048 235.074 37.0712 234.583 37.5626C234.091 38.0539 233.425 38.33 232.73 38.33V38.33Z" fill="white" stroke="#263238" stroke-width="1.34" stroke-linecap="round" stroke-linejoin="round"/>
<path d="M223.98 360.96C223.982 358.882 223.368 356.851 222.215 355.123C221.062 353.394 219.422 352.047 217.503 351.251C215.584 350.455 213.472 350.246 211.434 350.651C209.396 351.056 207.524 352.056 206.055 353.525C204.586 354.994 203.586 356.866 203.181 358.904C202.776 360.942 202.985 363.054 203.781 364.973C204.577 366.892 205.924 368.532 207.653 369.685C209.381 370.838 211.412 371.452 213.49 371.45C216.271 371.447 218.938 370.341 220.905 368.375C222.871 366.408 223.977 363.741 223.98 360.96Z" fill="white"/>
<path d="M218.81 355.64H208.17V366.28H218.81V355.64Z" fill="white" stroke="#263238" stroke-width="1.34" stroke-linecap="round" stroke-linejoin="round"/>
<path d="M77.91 170.06L44.99 159.31L42.06 151.56L35.36 151.35L23.22 149.05L24.69 151.56L39.96 162.66L43.73 164.54L78.18 182.52L77.91 170.06Z" fill="white" stroke="#263238" stroke-miterlimit="10"/>
<path d="M42.06 151.56L38.92 149.68L32.64 151.98L33.69 153.24L42.06 151.56Z" fill="white" stroke="#263238" stroke-linejoin="round"/>
<path d="M77.91 170.06L44.99 159.31L42.06 151.56L35.36 151.35L23.22 149.05L24.69 151.56L39.96 162.66L43.73 164.54L78.18 182.52L77.91 170.06Z" fill="white"/>
<path opacity="0.5" d="M77.91 170.06L44.99 159.31L42.06 151.56L35.36 151.35L23.22 149.05L24.69 151.56L39.96 162.66L43.73 164.54L78.18 182.52L77.91 170.06Z" fill="#004643" stroke="#263238" stroke-miterlimit="10"/>
<path d="M77.91 170.06L44.99 159.31L42.06 151.56L35.36 151.35L23.22 149.05L24.69 151.56L39.96 162.66L43.73 164.54L78.18 182.52L77.91 170.06Z" stroke="#263238" stroke-miterlimit="10"/>
<path d="M42.06 151.56L38.92 149.68L32.64 151.98L33.69 153.24L42.06 151.56Z" fill="white"/>
<path opacity="0.5" d="M42.06 151.56L38.92 149.68L32.64 151.98L33.69 153.24L42.06 151.56Z" fill="#004643" stroke="#263238" stroke-linejoin="round"/>
<path d="M42.06 151.56L38.92 149.68L32.64 151.98L33.69 153.24L42.06 151.56Z" stroke="#263238" stroke-linejoin="round"/>
<path d="M84.9 100.28C84.9 100.28 84.39 104.78 85.66 107.67C86.93 110.56 93.98 120.35 93.98 120.35L80.82 130.9C80.82 130.9 75.36 119.9 74.32 118.12C73.28 116.34 72.03 108.68 75.42 103.19C78.81 97.7 83.69 96.22 84.9 100.28Z" fill="white"/>
<g style="mix-blend-mode:multiply" opacity="0.5">
<path d="M78.1401 114.75L83.8501 126.58L80.8201 130.91L75.0801 120.67L78.1401 114.75Z" fill="#004643"/>
</g>
<path d="M84.9 100.28C84.9 100.28 84.39 104.78 85.66 107.67C86.93 110.56 93.98 120.35 93.98 120.35L80.82 130.9C80.82 130.9 75.36 119.9 74.32 118.12C73.28 116.34 72.03 108.68 75.42 103.19C78.81 97.7 83.69 96.22 84.9 100.28Z" stroke="#263238" stroke-miterlimit="10"/>
<path d="M88.9801 92.0399C88.1701 87.0399 82.4401 76.8699 73.3501 77.2599C67.4501 77.5199 64.6901 78.7099 62.1301 80.1599C60.0433 81.3894 58.0983 82.8448 56.3301 84.4999C51.8901 89.8299 50.3301 91.2899 51.1901 95.3699C51.1195 96.9973 51.3745 98.6224 51.9401 100.15C53.3001 103.78 54.2301 106.15 55.4101 107.88C55.0501 109.57 54.1101 114.03 54.0601 115.05C54.0101 116.07 57.0601 115.36 58.6001 114.97C61.4601 121.37 66.7001 125.81 68.3301 126.32C71.1701 127.21 75.6601 122.54 78.0401 118.92C80.4201 115.3 78.6201 111.23 78.6301 109.61C78.6401 107.99 83.9801 104.43 85.9601 103.3C87.9401 102.17 89.7801 97.0299 88.9801 92.0399Z" fill="white"/>
<g style="mix-blend-mode:multiply" opacity="0.5">
<path d="M51.2301 95.37C51.1595 96.9973 51.4145 98.6224 51.9801 100.15C53.3401 103.78 54.2701 106.15 55.4501 107.88C55.0901 109.57 54.1501 114.03 54.1001 115.05C54.0501 116.07 57.1001 115.36 58.6401 114.97C61.5001 121.37 66.7401 125.81 68.3701 126.32C71.2101 127.21 75.7001 122.54 78.0801 118.92C78.6747 118.016 79.0607 116.991 79.2101 115.92C79.0801 115.45 78.9901 115.16 78.9901 115.16C78.9901 115.16 77.6501 120.31 74.9901 119.64C72.3301 118.97 68.2601 113.64 65.9901 111.8C63.7201 109.96 64.6501 107.54 64.2001 104.8C63.7501 102.06 57.0301 99.65 56.5801 98.08C56.1301 96.51 57.7001 90.01 57.7001 90.01C57.7001 90.01 60.2501 86.61 59.7001 88.01C59.3113 89.2239 59.1703 90.5035 59.2854 91.7729C59.4005 93.0424 59.7693 94.2757 60.3701 95.4C60.7916 96.287 61.4603 97.0335 62.2958 97.5497C63.1313 98.0659 64.0981 98.3299 65.0801 98.31L67.5201 86.22L62.3701 81.96L56.3701 84.46C51.8901 89.83 50.3601 91.29 51.2301 95.37Z" fill="#004643"/>
</g>
<path d="M88.9801 92.0399C88.1701 87.0399 82.4401 76.8699 73.3501 77.2599C67.4501 77.5199 64.6901 78.7099 62.1301 80.1599C60.0433 81.3894 58.0983 82.8448 56.3301 84.4999C51.8901 89.8299 50.3301 91.2899 51.1901 95.3699C51.1195 96.9973 51.3745 98.6224 51.9401 100.15C53.3001 103.78 54.2301 106.15 55.4101 107.88C55.0501 109.57 54.1101 114.03 54.0601 115.05C54.0101 116.07 57.0601 115.36 58.6001 114.97C61.4601 121.37 66.7001 125.81 68.3301 126.32C71.1701 127.21 75.6601 122.54 78.0401 118.92C80.4201 115.3 78.6201 111.23 78.6301 109.61C78.6401 107.99 83.9801 104.43 85.9601 103.3C87.9401 102.17 89.7801 97.0299 88.9801 92.0399Z" stroke="#263238" stroke-miterlimit="10"/>
<path d="M56.65 104.86L57.65 107.72C57.65 107.72 59.8 108.43 62.42 105.57" stroke="#263238" stroke-miterlimit="10" stroke-linecap="round"/>
<path d="M64.04 118.22C64.04 118.22 66.42 117.98 67.38 114.64" stroke="#263238" stroke-miterlimit="10" stroke-linecap="round"/>
<path d="M54.98 102.47C54.98 102.47 55.69 100.32 59.98 100.32" stroke="#263238" stroke-miterlimit="10" stroke-linecap="round"/>
<path d="M76.97 73.28C73.8527 72.8317 70.7092 72.5912 67.56 72.56C67.56 72.56 58.14 67.13 49.09 72.92C40.04 78.71 44.39 88.85 44.39 91.38C44.39 93.91 41.49 93.92 43.3 97.18C45.11 100.44 51.23 98.64 51.23 98.64C51.2947 97.4104 51.6196 96.2086 52.1833 95.1139C52.747 94.0193 53.5366 93.0568 54.5 92.29C57.76 89.76 60.36 89.21 61.44 89.94C61.44 89.94 60.72 95.37 61.8 97.54C61.8 97.54 65.42 99.35 66.51 99.35C67.6 99.35 65.8 100.88 69.41 102.24C70.0677 102.476 70.7712 102.557 71.4652 102.475C72.1593 102.394 72.825 102.152 73.41 101.77C73.94 99.57 75.1 96.26 77.26 97.03C80.43 98.16 83.32 105.96 79.03 108.62C84.19 109.56 90.44 100.43 90.81 92.11C91.18 83.79 82.33 74.22 76.97 73.28Z" fill="#263238"/>
<path d="M61.6 86.37C61.6 86.37 64.26 84.94 67.52 88C70.78 91.06 77.12 95.15 85.52 92.9" stroke="white" stroke-width="0.5" stroke-linecap="round" stroke-linejoin="round"/>
<path d="M61.23 83.9199C61.23 83.9199 63.06 81.0599 66.12 81.0599C69.18 81.0599 76.33 85.3499 82.04 85.3499" stroke="white" stroke-width="0.5" stroke-linecap="round" stroke-linejoin="round"/>
<path d="M59.15 89.43C59.15 89.43 55.6801 85.1499 52.4201 88.6199C49.1601 92.0899 51.2301 95.3699 51.2301 95.3699" stroke="white" stroke-width="0.5" stroke-linecap="round" stroke-linejoin="round"/>
<path d="M45.28 92.29C47.2685 90.4967 48.5047 88.0173 48.74 85.35C49.15 80.86 55.28 76.98 59.15 80.66" stroke="white" stroke-width="0.5" stroke-linecap="round" stroke-linejoin="round"/>
<path d="M51.6 75.96C51.6 75.96 57.73 70.04 62.83 77.59" stroke="white" stroke-width="0.5" stroke-linecap="round" stroke-linejoin="round"/>
<path d="M101.49 367.03C101.49 367.03 105.26 372.89 104.84 376.66L104.43 380.43C104.43 380.43 90.6001 384.22 87.6701 384.22C84.7401 384.22 69.2301 382.75 69.2301 382.75L68.5601 380.09C68.5132 379.894 68.5353 379.687 68.6227 379.505C68.7101 379.323 68.8574 379.176 69.0401 379.09L82.8701 372.64L87.2301 367.87L101.49 367.03Z" fill="white" stroke="#263238" stroke-miterlimit="10"/>
<path d="M89.77 381.27C93.52 381.56 100.64 379.27 104.77 377.81L104.48 380.43C104.48 380.43 90.6 384.22 87.67 384.22C84.74 384.22 69.23 382.75 69.23 382.75L68.75 380.85C71.23 380.86 84.81 380.89 89.77 381.27Z" fill="#004643" stroke="#263238" stroke-miterlimit="10"/>
<path d="M82.8901 372.64L62.76 381.4C62.76 381.4 61.04 385.71 62.76 386.57C64.48 387.43 101.98 386.57 101.98 386.57C101.98 386.57 104.57 379.76 100.48 375.19C96.3901 370.62 82.8901 372.64 82.8901 372.64Z" fill="white" stroke="#263238" stroke-miterlimit="10"/>
<path d="M101.98 386.57C101.98 386.57 64.48 387.43 62.76 386.57C61.93 386.15 61.9 384.94 62.09 383.79H102.64C102.508 384.735 102.287 385.666 101.98 386.57Z" fill="#004643" stroke="#263238" stroke-miterlimit="10"/>
<path d="M73.37 220.43C73.37 220.43 68.11 243.74 66.12 258.32C64.13 272.9 62.96 302.11 63.38 305.46C63.8 308.81 84.74 364.94 84.74 364.94L86.83 369.94L101.49 367.01C101.49 367.01 94.79 345.65 92.28 333.92C89.77 322.19 84.28 302.92 84.28 299.57C84.28 296.22 97.28 232.24 98.21 228.04C99.14 223.84 103.36 217.39 103.36 217.39L75.29 216.82L73.37 220.43Z" fill="#004643" stroke="#263238" stroke-miterlimit="10"/>
<path d="M73.37 220.43C73.37 220.43 70.29 241.72 71.56 256.52C72.83 271.32 75.56 302.83 75.56 307.52C75.56 312.21 83.13 340.22 83.56 349.02C84.23 361.73 83.29 368.02 83.29 368.02L82.84 372.63C82.84 372.63 91.67 373.89 93.6 374.44C95.8291 375.014 98.1296 375.263 100.43 375.18C100.43 375.18 103.64 361.05 103.64 349.01C103.64 336.97 100.97 312.19 99.64 302.15C98.31 292.11 102.5 253.38 104.88 246.15C107.26 238.92 112.46 223.61 108.96 215.79C105.46 207.97 73.37 220.43 73.37 220.43Z" fill="#004643" stroke="#263238" stroke-miterlimit="10"/>
<path d="M112.85 211.87L112.53 221.39C112.53 221.39 106.83 222.52 99.1501 223.85C92.8101 224.95 76.8901 223.56 71.5301 223.04C71.0416 222.997 70.59 222.762 70.2735 222.388C69.957 222.013 69.8012 221.529 69.8401 221.04L70.3601 212.44L112.85 211.87Z" fill="#263238"/>
<path d="M90.5701 116.97C90.5701 116.97 81.5701 126.7 78.1801 132.75C74.7901 138.8 73.4501 148.07 72.1801 155.37C70.9101 162.67 74.3501 179.81 73.3801 187.68L70.3101 212.47C70.3101 212.47 69.6501 214.15 71.8601 215.99C74.0701 217.83 84.8601 218.5 94.6101 218.99C98.1701 219.17 108.8 216.88 110.54 216.77C112.64 216.64 112.71 213.97 112.8 211.87C113.22 202 115 175.69 116.17 164.23C118.58 140.86 105.39 118.3 90.5701 116.97Z" fill="white" stroke="#263238" stroke-miterlimit="10"/>
<g style="mix-blend-mode:multiply">
<path d="M115.07 177.52C115.47 172.33 115.87 167.62 116.22 164.23C116.32 163.23 116.38 162.23 116.43 161.23L92.52 165.23L71.98 158.23C71.9822 162.48 72.2226 166.727 72.7 170.95L92.85 176.59L115.07 177.52Z" fill="#004643"/>
</g>
<g style="mix-blend-mode:multiply">
<path d="M89.68 117.95C88.32 119.46 85.62 122.53 83.05 125.79L98.23 141.22L103.23 139.22L89.68 117.95Z" fill="#004643"/>
</g>
<path d="M90.57 116.97C90.57 116.97 81.57 126.7 78.18 132.75C77.1748 134.589 76.3605 136.525 75.75 138.53L93.85 117.62C92.7807 117.296 91.682 117.078 90.57 116.97V116.97Z" fill="#263238"/>
<g style="mix-blend-mode:multiply">
<path d="M72.88 151.43L92.52 157.89L116.37 155.15C115.996 149.209 114.676 143.365 112.46 137.84L93.23 145.55L76.04 137.76C74.6344 142.228 73.5779 146.798 72.88 151.43V151.43Z" fill="#004643"/>
</g>
<g style="mix-blend-mode:multiply">
<path d="M106.69 202C96.7287 203.672 86.5077 202.837 76.95 199.57L72.16 197.93L70.67 209.93L76.13 211.46C86.5098 214.362 97.3583 215.198 108.06 213.92L112.47 213.39C112.7 212.904 112.829 212.377 112.85 211.84C112.97 209.17 113.18 205.29 113.45 200.84L106.69 202Z" fill="#004643"/>
</g>
<g style="mix-blend-mode:multiply">
<path d="M109.36 185.66C99.3983 187.339 89.1748 186.5 79.62 183.22L73.52 181.13C73.6713 183.309 73.6412 185.496 73.43 187.67L72.72 193.44L78.8 195.14C89.1757 198.045 100.021 198.884 110.72 197.61L113.72 197.25C113.97 193.25 114.26 188.99 114.57 184.78L109.36 185.66Z" fill="#004643"/>
</g>
<path d="M15.5512 143.372L34.8866 158.918L35.72 157.881L16.3846 142.335L15.5512 143.372Z" fill="#263238"/>
<path d="M99.88 127.76C99.88 127.76 106.97 132.59 107.13 144C107.2 149 106.68 153.67 105.53 161.86C104.38 170.05 97.24 196.72 91.68 199.96C86.12 203.2 77.49 197.08 77.49 197.08L35.75 169.37L25.66 161.22L20.66 151.78L22.23 148.78L34.54 158.22L27.91 152.09L29.21 150.44L31.61 152.11L38.61 154.73L40.14 164.73L42.3 166.21L82.23 180.8C82.23 180.8 81.73 159.31 82.1 155.2C82.47 151.09 82.98 140.76 87.38 133.27" fill="white"/>
<g style="mix-blend-mode:multiply" opacity="0.5">
<path d="M81.95 164.56C81.95 171.98 82.2 180.8 82.2 180.8L42.31 166.27L40.15 164.79L38.62 154.79L31.62 152.17L29.23 150.47L27.93 152.12L34.54 158.22L22.23 148.78L20.74 151.73L25.74 161.17L35.83 169.37L38.37 171.06L93.52 188.83L81.95 164.56Z" fill="#004643"/>
</g>
<path d="M99.88 127.76C99.88 127.76 106.97 132.59 107.13 144C107.2 149 106.68 153.67 105.53 161.86C104.38 170.05 97.24 196.72 91.68 199.96C86.12 203.2 77.49 197.08 77.49 197.08L35.75 169.37L25.66 161.22L20.66 151.78L22.23 148.78L34.54 158.22L27.91 152.09L29.21 150.44L31.61 152.11L38.61 154.73L40.14 164.73L42.3 166.21L82.23 180.8C82.23 180.8 81.73 159.31 82.1 155.2C82.47 151.09 82.98 140.76 87.38 133.27" stroke="#263238" stroke-miterlimit="10"/>
<path d="M82.2301 180.8L97.4701 191.8L101.42 184.8C101.42 184.8 104.15 182.65 104.55 181.03C104.95 179.41 104.44 176.78 104.85 175.16C105.26 173.54 107.3 172.02 107.49 168.1C107.68 164.18 107.49 160.91 107.49 160.91C107.49 160.91 110.79 147.34 110.43 141.44C110.07 135.54 104.38 125.11 99.8201 124.88C95.2601 124.65 89.3301 125.34 84.7301 132.3C80.1301 139.26 81.0701 159.58 80.3501 160.85C79.6301 162.12 80.6301 168.39 80.6301 168.39C80.2304 168.688 79.8988 169.068 79.6574 169.504C79.416 169.94 79.2703 170.423 79.2301 170.92C79.1501 172.55 80.9101 176.56 80.9101 176.56L82.2301 180.8Z" fill="white" stroke="#263238" stroke-miterlimit="10"/>
<g style="mix-blend-mode:multiply">
<path d="M80.75 155.63C80.7814 157.375 80.6508 159.119 80.36 160.84C79.72 161.98 80.45 167.13 80.61 168.18C89.1818 170.842 98.2457 171.526 107.12 170.18C107.311 169.485 107.425 168.77 107.46 168.05C107.66 164.14 107.46 160.86 107.46 160.86C107.46 160.86 107.75 159.65 108.15 157.81C98.9594 158.394 89.7325 157.66 80.75 155.63V155.63Z" fill="#004643"/>
</g>
<g style="mix-blend-mode:multiply">
<path d="M84.11 133.41C82.68 136.28 81.88 140.59 81.42 144.96C90.4981 148.425 100.286 149.616 109.93 148.43C110.315 146.117 110.486 143.774 110.44 141.43C110.267 139.577 109.829 137.759 109.14 136.03C100.719 136.227 92.3077 135.346 84.11 133.41V133.41Z" fill="#004643"/>
</g>
<path d="M80.91 176.67L82.2 180.8L97.44 191.8L101.39 184.8C101.39 184.8 104.12 182.65 104.52 181.03C104.591 180.748 104.635 180.46 104.65 180.17C96.6189 180.031 88.6395 178.855 80.91 176.67V176.67Z" fill="#263238"/>
<path d="M91.94 374.31C91.94 374.31 92.28 365.65 93.94 352.99C95.6 340.33 91.61 322.35 90.94 319.35C90.27 316.35 91.28 309.69 90.61 307.35C89.94 305.01 86.7 295.03 88.61 283.45C90.52 271.87 92.07 241.26 92.07 241.26C92.07 241.26 87.26 237.35 85.85 232.26C84.44 227.17 85.52 225.57 85.52 225.57" stroke="#263238" stroke-miterlimit="10"/>
<path d="M94.1701 226.04L92.3201 236.29" stroke="#263238" stroke-miterlimit="10"/>
</g>
<defs>
<clipPath id="clip0">
<rect width="405.91" height="393.91" fill="white"/>
</clipPath>
</defs>
</svg>
